# xmcd
# Track frame offsets:
# 150
# 11571
# 25259
# 36053
# 46908
# 57659
# 68853
# 80625
# 90973
# 106969
# 119286
# 134382
# 147756
# 160223
# 171884
# 183499
# 200163
# 215095
# 230354
# 245398
#
# Disc length: 3520 seconds
# Revision: 0
# Processed by: cddbd v1.4PL0 Copyright (c) Steve Scherf et al.
# Submitted via: VisiTrax 2.9.5.181 - For more info visit www.synapsa.com
#
DISCID=1a0dbe14
DTITLE=Jerry Reed - The Essentail Jerry Reed
DYEAR=1900
DGENRE=
TTITLE0=Guitar Man
TTITLE1=Alabama Jubilee
TTITLE2=Amos Moses
TTITLE3=A Thing Called Love
TTITLE4=When You're Hot, You're Hot
TTITLE5=Smell The Flowers
TTITLE6=Koko Joe
TTITLE7=You Took All The Ramblin' Out Of Me
TTITLE8=The Uptown Poker Club
TTITLE9=The Claw
TTITLE10=Lord, Mr. Ford
TTITLE11=A Good Woman's Love
TTITLE12=East Bound And Down (From Smokey And The Bandit)
TTITLE13=Let's Sing Our Song
TTITLE14=The Crude Oil Blues
TTITLE15=I Love You, What Can I Say
TTITLE16=The Bird
TTITLE17=Texas Bound And Flyin' (From Smokey And The Bandit)
TTITLE18=She Got The Goldmine (I Got The Shaft)
TTITLE19=Another Puff
EXTD=
EXTT0=
EXTT1=
EXTT2=
EXTT3=
EXTT4=
EXTT5=
EXTT6=
EXTT7=
EXTT8=
EXTT9=
EXTT10=
EXTT11=
EXTT12=
EXTT13=
EXTT14=
EXTT15=
EXTT16=
EXTT17=
EXTT18=
EXTT19=
PLAYORDER=
